<?xml version="1.0" encoding="UTF-8" standalone="no"?>
<!-- Created with Inkscape (http://www.inkscape.org/) -->

<svg
   width="48"
   height="48"
   viewBox="0 0 48 48"
   version="1.1"
   id="svg1"
   inkscape:version="1.4.2 (f4327f4, 2025-05-13)"
   sodipodi:docname="gek_settings_icone_48x48.svg"
   xmlns:inkscape="http://www.inkscape.org/namespaces/inkscape"
   xmlns:sodipodi="http://sodipodi.sourceforge.net/DTD/sodipodi-0.dtd"
   xmlns="http://www.w3.org/2000/svg"
   xmlns:svg="http://www.w3.org/2000/svg">
  <sodipodi:namedview
     id="namedview1"
     pagecolor="#ffffff"
     bordercolor="#000000"
     borderopacity="0.25"
     inkscape:showpageshadow="2"
     inkscape:pageopacity="0.0"
     inkscape:pagecheckerboard="0"
     inkscape:deskcolor="#d1d1d1"
     inkscape:document-units="mm"
     showgrid="true"
     inkscape:zoom="12.13"
     inkscape:cx="23.660346"
     inkscape:cy="26.834295"
     inkscape:window-width="1920"
     inkscape:window-height="1051"
     inkscape:window-x="-9"
     inkscape:window-y="-9"
     inkscape:window-maximized="1"
     inkscape:current-layer="svg1">
    <inkscape:grid
       id="grid6"
       units="px"
       originx="0"
       originy="0"
       spacingx="1"
       spacingy="1"
       empcolor="#0099e5"
       empopacity="0.30196078"
       color="#0099e5"
       opacity="0.14901961"
       empspacing="1"
       enabled="true"
       visible="true"
       dotted="false" />
  </sodipodi:namedview>
  <defs
     id="defs1">
    <inkscape:path-effect
       effect="bspline"
       id="path-effect70"
       is_visible="true"
       lpeversion="1.3"
       weight="33.333333"
       steps="2"
       helper_size="0"
       apply_no_weight="true"
       apply_with_weight="true"
       only_selected="false"
       uniform="false" />
  </defs>
  <g
     inkscape:label="Calque 1"
     inkscape:groupmode="layer"
     id="layer1">
    <path
       id="path29"
       style="opacity:0.99;stroke:#000000;stroke-width:1.48179"
       d="M 40.757307,24.05212 A 16.757023,17.31397 0 0 1 24.092085,41.453114 16.757023,17.31397 0 0 1 7.2437648,24.241384 16.757023,17.31397 0 0 1 23.894685,6.8257772 16.757023,17.31397 0 0 1 40.75714,24.022725 M 11.422382,11.844309 A 4.5301564,2.5507094 59.911421 0 0 11.395117,6.7033033 M 19.633193,7.112563 A 4.5301564,2.5507094 59.911421 0 1 15.18634,4.5184903 M 10.953248,5.9531556 14.731069,3.776063 17.151221,7.9601373 13.3734,10.13723 Z M 6.9565499,19.767363 A 4.534351,2.5483499 29.911694 0 0 4.357671,15.328729 m 7.339391,-3.75699 A 4.534351,2.5483499 29.911694 0 1 6.5465303,11.544527 M 3.5992277,14.899615 5.780354,11.12878 9.9721802,13.544457 7.7910541,17.315292 Z m 3.4586639,13.9581 A 4.5364442,2.547174 0 0 0 2.583767,26.310782 M 7.0578916,19.394225 A 4.5364442,2.547174 0 0 1 2.583767,21.941157 m -0.8717866,4.376517 v -4.354185 h 4.8403031 v 4.354185 z m 9.9872736,10.361941 a 2.5483499,4.534351 60.088306 0 0 -5.1505315,0.02721 m 0.410018,-8.222841 A 2.5483499,4.534351 60.088306 0 1 4.3598615,32.92262 M 5.7971849,37.147882 3.6160588,33.377047 7.807885,30.96137 9.9890113,34.732206 Z M 19.636986,41.13719 a 2.5507094,4.5301564 30.088579 0 0 -4.446859,2.594072 m -3.76395,-7.325818 a 2.5507094,4.5301564 30.088579 0 1 -0.02726,5.141007 m 3.361305,2.941852 -3.777822,-2.177092 2.420152,-4.184075 3.77782,2.177092 z m 13.983962,-3.452269 a 2.5518932,4.5280549 0 0 0 -2.551652,4.465851 M 19.26316,41.036034 a 2.5518932,4.5280549 0 0 1 2.551654,4.465851 m 4.384626,0.870174 h -4.362254 v -4.831353 h 4.362254 z m 10.381138,-9.968804 a 4.5301564,2.5507094 59.911421 0 0 0.02726,5.141007 m -8.238076,-0.40926 a 4.5301564,2.5507094 59.911421 0 1 4.446859,2.594072 m 4.233096,-1.434665 -3.777821,2.177093 -2.420151,-4.184074 3.77782,-2.177094 z m 3.996689,-13.814207 a 4.534351,2.5483499 29.911694 0 0 2.59888,4.438634 m -7.339392,3.75699 a 4.534351,2.5483499 29.911694 0 1 5.150531,0.02721 M 44.403728,33.34795 42.2226,37.118784 38.030774,34.703109 40.211902,30.932274 Z M 40.945062,19.389849 a 4.5364442,2.547174 0 0 0 4.474126,2.546934 m -4.474126,6.916557 a 4.5364442,2.547174 0 0 1 4.474126,-2.546933 m 0.871786,-4.376517 v 4.354186 H 41.45067 V 21.92989 Z M 36.3037,11.56795 a 2.5483499,4.534351 60.088306 0 0 5.150531,-0.02721 m -0.410018,8.222842 a 2.5483499,4.534351 60.088306 0 1 2.59888,-4.438634 m -1.437325,-4.225263 2.181127,3.770834 -4.191827,2.415677 -2.181126,-3.770835 z m -13.8398,-3.9893066 a 2.5507094,4.5301564 30.088579 0 0 4.446858,-2.5940727 m 3.763951,7.3258173 a 2.5507094,4.5301564 30.088579 0 1 0.02726,-5.1410058 M 33.242733,3.7592631 37.020555,5.9363559 34.600403,10.12043 30.822582,7.9433376 Z M 19.258774,7.2115308 a 2.5518932,4.5280549 0 0 0 2.551652,-4.4658506 m 6.929371,4.4658506 A 2.5518932,4.5280549 0 0 1 26.188145,2.7456802 M 21.803519,1.8755058 h 4.362253 v 4.831352 h -4.362253 z m -2.544745,5.336025 a 2.5518932,4.5280549 0 0 0 2.551652,-4.4658506 m 6.929371,4.4658506 A 2.5518932,4.5280549 0 0 1 26.188145,2.7456802 M 21.803519,1.8755058 h 4.362253 v 4.831352 H 21.803519 Z M 40.716524,24.104707 A 16.684683,16.725015 0 0 1 24.123246,40.913787 16.684683,16.725015 0 0 1 7.3476604,24.287532 16.684683,16.725015 0 0 1 23.926696,7.464338 16.684683,16.725015 0 0 1 40.716358,24.076311" />
    <path
       style="opacity:0.99;fill:#ffff00;stroke:#000000;stroke-width:1.48179"
       id="path68"
       sodipodi:type="arc"
       sodipodi:cx="23.9767"
       sodipodi:cy="24.101059"
       sodipodi:rx="14.116418"
       sodipodi:ry="14.015163"
       sodipodi:start="6.2781441"
       sodipodi:end="6.2764463"
       sodipodi:open="true"
       sodipodi:arc-type="arc"
       d="M 38.092938,24.030406 A 14.116418,14.015163 0 0 1 24.053855,38.116013 14.116418,14.015163 0 0 1 9.8605268,24.183609 14.116418,14.015163 0 0 1 23.887561,10.086175 14.116418,14.015163 0 0 1 38.092797,24.006611" />
    <g
       id="g88"
       transform="matrix(1.483165,0,0,1.4804222,-9.6291884,-17.50227)">
      <rect
         style="opacity:0.99;fill:#008000;stroke:#000000;stroke-width:0.147274;stroke-dasharray:none;stroke-opacity:1"
         id="rect68"
         width="7.8613873"
         height="1.9633623"
         x="-5.5687032"
         y="33.902534"
         transform="matrix(0.7248961,-0.68885822,0.66982802,0.74251628,0,0)" />
      <path
         id="rect70"
         style="opacity:0.99;fill:#000000;stroke:#000000;stroke-width:0.296296;stroke-dasharray:none;stroke-opacity:1"
         d="m 25.288954,22.230501 a 2.9224633,1.3037916 49.338395 0 1 -2.849771,-1.383187 2.9224633,1.3037916 49.338395 0 1 -0.08929,-0.103946 l -0.269342,0.231357 4.715414,5.489611 1.225508,-1.052675 z" />
      <path
         d="m 21.431519,26.513935 -2.655805,2.49591 1.221571,1.362196 3.323829,-3.192536 z"
         style="opacity:0.99;fill:#ff0000;stroke-width:0.290307"
         id="path89"
         sodipodi:nodetypes="ccccc" />
    </g>
  </g>
  <g
     inkscape:groupmode="layer"
     id="layer2"
     inkscape:label="Calque 2" />
  <text
     xml:space="preserve"
     style="font-size:5.90951px;font-family:Forte;-inkscape-font-specification:Forte;text-align:start;writing-mode:lr-tb;direction:ltr;text-anchor:start;opacity:0.99;fill:#000000;stroke:none;stroke-width:0.544418;stroke-dasharray:none;stroke-opacity:1"
     x="14.773263"
     y="31.345156"
     id="text89"
     transform="scale(0.96833103,1.0327047)"><tspan
       sodipodi:role="line"
       id="tspan89"
       x="14.773263"
       y="31.345156"
       style="stroke-width:0.544418">Settings</tspan></text>
</svg>
