<?xml version="1.0" encoding="UTF-8" standalone="no"?>
<!-- Created with Inkscape (http://www.inkscape.org/) -->

<svg
   width="192"
   height="192"
   viewBox="0 0 192 192"
   version="1.1"
   id="svg1"
   inkscape:version="1.4.2 (f4327f4, 2025-05-13)"
   sodipodi:docname="gek_settings_icone_192x192.svg"
   xmlns:inkscape="http://www.inkscape.org/namespaces/inkscape"
   xmlns:sodipodi="http://sodipodi.sourceforge.net/DTD/sodipodi-0.dtd"
   xmlns="http://www.w3.org/2000/svg"
   xmlns:svg="http://www.w3.org/2000/svg">
  <sodipodi:namedview
     id="namedview1"
     pagecolor="#ffffff"
     bordercolor="#000000"
     borderopacity="0.25"
     inkscape:showpageshadow="2"
     inkscape:pageopacity="0.0"
     inkscape:pagecheckerboard="0"
     inkscape:deskcolor="#d1d1d1"
     inkscape:document-units="px"
     showgrid="true"
     inkscape:zoom="1.74"
     inkscape:cx="22.413793"
     inkscape:cy="45.689655"
     inkscape:window-width="1920"
     inkscape:window-height="1051"
     inkscape:window-x="-9"
     inkscape:window-y="-9"
     inkscape:window-maximized="1"
     inkscape:current-layer="svg1">
    <inkscape:grid
       id="grid6"
       units="px"
       originx="0"
       originy="0"
       spacingx="1"
       spacingy="1"
       empcolor="#0099e5"
       empopacity="0.30196078"
       color="#0099e5"
       opacity="0.14901961"
       empspacing="1"
       enabled="true"
       visible="true"
       dotted="false" />
  </sodipodi:namedview>
  <defs
     id="defs1">
    <inkscape:path-effect
       effect="bspline"
       id="path-effect70"
       is_visible="true"
       lpeversion="1.3"
       weight="33.333333"
       steps="2"
       helper_size="0"
       apply_no_weight="true"
       apply_with_weight="true"
       only_selected="false"
       uniform="false" />
  </defs>
  <g
     inkscape:label="Calque 1"
     inkscape:groupmode="layer"
     id="layer1">
    <path
       id="path29"
       style="opacity:0.99;stroke:#000000;stroke-width:5.67322"
       d="M 160.34401,96.263481 A 64.220667,66.22238 0 0 1 96.475165,162.81871 64.220667,66.22238 0 0 1 31.904605,96.987377 64.220667,66.22238 0 0 1 95.718637,30.376257 64.220667,66.22238 0 0 1 160.34336,96.151052 M 47.919,49.571111 A 17.335668,9.7705649 59.81527 0 0 47.814508,29.90782 m 31.57212,1.565334 A 17.335668,9.7705649 59.81527 0 1 62.344229,21.551358 m -16.223168,5.487301 14.478358,-8.326932 9.275144,16.003225 -14.478359,8.326932 z M 30.803865,79.875166 A 17.369103,9.7517568 29.816453 0 0 20.843758,62.898302 M 48.971701,48.528586 A 17.369103,9.7517568 29.816453 0 1 29.23248,48.424507 m -11.295428,12.832522 8.359086,-14.42267 16.065017,9.239468 -8.359084,14.422671 z M 31.192253,114.64389 A 17.385754,9.7424178 0 0 0 14.045337,104.9024 M 31.192253,78.447989 a 17.385754,9.7424178 0 0 1 -17.146916,9.741492 m -3.34109,16.739279 V 88.274897 h 18.550282 v 16.653863 z m 38.275855,39.6323 a 9.7517568,17.369103 60.183547 0 0 -19.73922,0.10407 m 1.571378,-31.45068 a 9.7517568,17.369103 60.183547 0 1 -9.960107,16.97687 m 5.508489,16.16076 -8.359085,-14.42267 16.065018,-9.23947 8.359085,14.42268 z m 53.040522,15.25829 a 9.7705649,17.335668 30.18473 0 0 -17.042422,9.92179 M 47.933544,143.51241 a 9.7705649,17.335668 30.18473 0 1 -0.104473,19.6633 m 12.882077,11.25197 -14.478362,-8.32693 9.275142,-16.00322 14.478354,8.32693 z m 53.593012,-13.20421 a 9.7800358,17.31888 0 0 0 -9.77911,17.08096 M 77.96849,161.22347 a 9.7800358,17.31888 0 0 1 9.779119,17.08096 m 16.803921,3.32823 H 87.833349 v -18.47893 h 16.718181 z m 39.78532,-38.12862 a 17.335668,9.7705649 59.81527 0 0 0.10448,19.66329 m -31.57213,-1.56534 a 17.335668,9.7705649 59.81527 0 1 17.04242,9.9218 m 16.22319,-5.4873 -14.47836,8.32694 -9.27514,-16.00323 14.47836,-8.32694 z m 15.31715,-52.8365 a 17.369103,9.7517568 29.816453 0 0 9.96012,16.97686 m -28.12795,14.36972 a 17.369103,9.7517568 29.816453 0 1 19.73922,0.10407 m 11.29543,-12.83252 -8.35909,14.42267 -16.06501,-9.23947 8.35909,-14.42266 z m -13.2552,-53.386868 a 17.385754,9.7424178 0 0 0 17.14692,9.7415 m -17.14692,26.454418 a 17.385754,9.7424178 0 0 1 17.14692,-9.74151 m 3.34108,-16.739272 V 104.80026 H 163.00129 V 88.146388 Z M 143.27573,48.514095 a 9.7517568,17.369103 60.183547 0 0 19.73921,-0.104073 m -1.57138,31.450682 a 9.7517568,17.369103 60.183547 0 1 9.96011,-16.976863 m -5.50849,-16.160764 8.35909,14.422666 -16.06502,9.239468 -8.35909,-14.422669 z M 112.85466,31.464799 a 9.7705649,17.335668 30.18473 0 0 17.04242,-9.921796 m 14.4252,28.019747 a 9.7705649,17.335668 30.18473 0 1 0.10447,-19.663291 M 131.54468,18.64747 146.02305,26.974403 136.7479,42.977628 122.26955,34.650697 Z M 77.951681,31.851685 A 9.7800358,17.31888 0 0 0 87.730792,14.770724 M 114.28735,31.851685 A 9.7800358,17.31888 0 0 1 104.50824,14.770724 M 87.704321,11.442485 h 16.718169 v 18.47893 H 87.704321 Z m -9.75264,20.4092 A 9.7800358,17.31888 0 0 0 87.730792,14.770724 M 114.28735,31.851685 A 9.7800358,17.31888 0 0 1 104.50824,14.770724 M 87.704321,11.442485 h 16.718169 v 18.47893 H 87.704321 Z M 160.18771,96.464616 A 63.943427,63.969749 0 0 1 96.594589,160.7559 63.943427,63.969749 0 0 1 32.302781,97.163884 63.943427,63.969749 0 0 1 95.841318,32.818622 63.943427,63.969749 0 0 1 160.18707,96.356007" />
    <path
       style="opacity:0.99;fill:#ffff00;stroke:#000000;stroke-width:5.67322"
       id="path68"
       sodipodi:type="arc"
       sodipodi:cx="96.032959"
       sodipodi:cy="96.450661"
       sodipodi:rx="54.100647"
       sodipodi:ry="53.605122"
       sodipodi:start="6.2781441"
       sodipodi:end="6.2764463"
       sodipodi:open="true"
       sodipodi:arc-type="arc"
       d="M 150.13292,96.180427 A 54.100647,53.605122 0 0 1 96.328653,150.05498 54.100647,53.605122 0 0 1 41.93325,96.766399 54.100647,53.605122 0 0 1 95.69134,42.846608 a 54.100647,53.605122 0 0 1 54.44104,53.24281" />
    <g
       id="g88"
       transform="matrix(5.6841747,0,0,5.662311,-32.76036,-62.673528)">
      <rect
         style="opacity:0.99;fill:#008000;stroke:#000000;stroke-width:0.147274;stroke-dasharray:none;stroke-opacity:1"
         id="rect68"
         width="7.8613873"
         height="1.9633623"
         x="-5.5687032"
         y="33.902534"
         transform="matrix(0.7248961,-0.68885822,0.66982802,0.74251628,0,0)" />
      <path
         id="rect70"
         style="opacity:0.99;fill:#000000;stroke:#000000;stroke-width:0.296296;stroke-dasharray:none;stroke-opacity:1"
         d="m 25.288954,22.230501 a 2.9224633,1.3037916 49.338395 0 1 -2.849771,-1.383187 2.9224633,1.3037916 49.338395 0 1 -0.08929,-0.103946 l -0.269342,0.231357 4.715414,5.489611 1.225508,-1.052675 z" />
      <path
         d="m 21.431519,26.513935 -2.655805,2.49591 1.221571,1.362196 3.323829,-3.192536 z"
         style="opacity:0.99;fill:#ff0000;stroke-width:0.290307"
         id="path89"
         sodipodi:nodetypes="ccccc" />
    </g>
  </g>
  <g
     inkscape:groupmode="layer"
     id="layer2"
     inkscape:label="Calque 2" />
  <text
     xml:space="preserve"
     style="font-size:22.6254px;font-family:Forte;-inkscape-font-specification:Forte;text-align:start;writing-mode:lr-tb;direction:ltr;text-anchor:start;opacity:0.99;fill:#000000;stroke:none;stroke-width:2.08437;stroke-dasharray:none;stroke-opacity:1"
     x="60.835678"
     y="124.1469"
     id="text89"
     transform="scale(0.9693012,1.0316711)"><tspan
       sodipodi:role="line"
       id="tspan89"
       x="60.835678"
       y="124.1469"
       style="stroke-width:2.08437">Settings</tspan></text>
</svg>
